<?xml version="1.0" standalone="no"?>
<!DOCTYPE svg PUBLIC "-//W3C//DTD SVG 20010904//EN"
 "http://www.w3.org/TR/2001/REC-SVG-20010904/DTD/svg10.dtd">
<svg version="1.0" xmlns="http://www.w3.org/2000/svg"
 width="260.000000pt" height="260.000000pt" viewBox="0 0 260.000000 260.000000"
 preserveAspectRatio="xMidYMid meet">
<metadata>
Created by potrace 1.14, written by Peter Selinger 2001-2017
</metadata>
<g transform="translate(0.000000,260.000000) scale(0.100000,-0.100000)"
fill="#000000" stroke="none">
<path d="M554 2585 c-78 -17 -204 -69 -274 -113 -116 -73 -205 -193 -251 -337
-43 -135 -32 -372 25 -531 88 -250 451 -795 765 -1149 152 -171 370 -369 473
-429 l47 -27 37 33 c105 94 341 337 457 471 10 12 31 36 45 52 86 97 275 332
347 431 11 16 35 47 53 71 17 24 32 46 32 49 0 2 18 29 40 59 22 30 40 56 40
59 0 2 19 34 41 72 113 186 170 404 164 629 -4 136 -5 147 -29 230 -56 188
-175 316 -356 379 -103 35 -175 45 -310 42 -98 -3 -125 -7 -185 -31 -116 -46
-166 -91 -285 -255 -38 -52 -80 -108 -93 -125 l-25 -30 -22 20 c-13 11 -67 74
-120 140 -141 174 -219 240 -331 281 -57 21 -207 26 -285 9z m1420 -626 c69
-47 111 -151 110 -274 0 -125 -20 -196 -86 -315 -153 -275 -510 -701 -661
-790 l-32 -19 -85 63 c-293 219 -544 575 -626 888 -25 99 -26 107 -26 208 0
104 17 161 64 212 47 49 85 62 178 62 165 -1 246 -66 434 -352 37 -56 71 -100
75 -98 4 3 34 44 66 93 141 209 216 292 299 332 99 46 214 42 290 -10z"/>
</g>
</svg>
